<?xml version="1.0" standalone="no"?>
<!DOCTYPE svg PUBLIC "-//W3C//DTD SVG 20010904//EN"
 "http://www.w3.org/TR/2001/REC-SVG-20010904/DTD/svg10.dtd">
<svg version="1.0" xmlns="http://www.w3.org/2000/svg"
 width="300.000000pt" height="300.000000pt" viewBox="0 0 300.000000 300.000000"
 preserveAspectRatio="xMidYMid meet">
<metadata>
Created by potrace 1.10, written by Peter Selinger 2001-2011
</metadata>
<g transform="translate(0.000000,300.000000) scale(0.100000,-0.100000)"
fill="#000000" stroke="none">
<path d="M1414 2473 c1 -13 -6 -18 -21 -17 -12 0 -20 -3 -17 -8 8 -12 -16 -39
-27 -32 -5 3 -9 0 -9 -5 0 -17 -16 -13 -18 4 -1 8 -3 22 -4 30 -2 18 -48 16
-55 -2 -3 -7 -8 -11 -12 -9 -4 3 -7 -7 -6 -22 0 -18 -6 -28 -19 -30 -11 -3
-16 0 -11 7 3 6 11 8 17 5 7 -4 8 -2 4 4 -4 6 -13 9 -21 5 -8 -3 -15 0 -15 6
0 6 -5 11 -11 11 -6 0 -8 -7 -5 -17 4 -10 4 -14 0 -11 -3 4 -13 0 -21 -8 -8
-8 -20 -12 -26 -8 -7 3 -4 -1 6 -9 18 -15 24 -32 7 -22 -5 3 -10 1 -10 -4 0
-6 12 -11 28 -12 23 0 24 -2 8 -8 -16 -6 -17 -9 -5 -13 9 -3 15 -18 14 -34 0
-17 9 -40 22 -54 12 -13 18 -27 13 -30 -5 -3 14 -7 43 -8 101 -4 108 -5 102
-22 -3 -9 1 -8 10 4 11 14 15 16 15 5 1 -10 3 -9 11 4 6 10 15 14 22 10 15
-10 108 -13 122 -5 6 4 19 8 30 9 11 2 23 10 28 18 4 9 11 14 15 12 4 -2 18 8
31 21 15 17 18 23 7 19 -14 -6 -15 -3 -6 13 6 11 16 20 23 20 9 0 9 2 -1 8
-16 11 -5 41 23 65 16 14 17 16 3 11 -13 -4 -18 -1 -18 11 0 11 -5 15 -15 11
-8 -3 -15 -1 -15 4 0 5 -7 7 -15 4 -8 -4 -12 -10 -9 -15 11 -18 -7 -8 -34 17
-15 15 -22 24 -16 21 6 -3 11 0 11 8 0 8 -4 12 -9 9 -4 -3 -8 3 -8 12 0 16 -2
15 -22 -2 -12 -10 -18 -13 -14 -6 4 7 1 12 -8 12 -9 0 -15 -3 -15 -7 4 -23 -3
-40 -16 -40 -8 0 -12 4 -9 8 2 4 0 10 -6 14 -5 3 -10 1 -10 -4 0 -6 -5 -11
-11 -11 -5 0 -7 5 -4 10 3 6 -1 13 -9 16 -9 3 -14 10 -11 14 3 4 -1 13 -9 19
-11 9 -14 8 -12 -6z m12 -58 c-4 -16 2 -29 21 -46 14 -13 23 -19 19 -12 -8 14
10 27 25 17 8 -4 7 -9 -2 -15 -11 -7 -11 -9 -1 -9 20 0 42 26 42 48 0 11 7 25
15 32 12 10 15 9 15 -7 0 -10 -5 -24 -10 -29 -8 -8 -7 -19 0 -39 10 -27 11
-27 26 -9 13 16 15 16 10 2 -6 -21 19 -14 51 15 13 11 26 17 30 14 3 -4 -6
-18 -20 -31 -14 -13 -29 -40 -32 -59 -7 -34 -8 -35 -38 -26 -74 19 -267 17
-334 -5 -20 -6 -23 -4 -23 19 0 31 -16 65 -39 82 -9 6 -13 14 -9 18 3 3 14 -2
24 -13 20 -19 56 -37 51 -24 -1 4 3 7 8 7 6 0 9 -4 7 -10 -1 -5 5 -1 13 9 18
23 19 35 5 71 -8 20 -7 26 2 23 7 -3 15 -15 16 -29 5 -29 34 -59 60 -59 24 0
54 33 52 57 -4 32 0 44 11 37 6 -3 8 -16 5 -29z m172 -174 c28 -16 -52 -26
-198 -25 -80 0 -143 5 -155 11 -16 10 -17 13 -5 17 46 16 328 14 358 -3z"/>
<path d="M1364 2117 c-4 -11 -14 -13 -40 -7 -20 5 -34 4 -34 -2 0 -5 -8 -8
-17 -6 -10 1 -24 -1 -32 -6 -9 -6 -12 -5 -7 2 14 24 -11 17 -36 -9 -15 -16
-25 -29 -21 -29 3 0 -1 -8 -8 -17 -8 -10 -9 -14 -2 -10 6 4 14 3 18 -3 3 -5 2
-10 -3 -10 -18 0 -7 -45 18 -71 18 -19 29 -24 38 -17 6 6 12 7 12 3 0 -4 7 -2
15 5 8 6 24 9 37 5 18 -5 20 -4 8 4 -15 11 -13 13 18 15 11 0 26 7 36 15 9 8
19 11 22 8 4 -3 13 1 22 9 11 12 17 12 22 4 6 -10 9 -9 12 0 2 6 20 12 40 13
20 0 35 4 32 8 -9 16 15 18 30 3 9 -8 16 -11 16 -5 0 6 5 11 11 11 5 0 8 -4 4
-9 -3 -5 -1 -13 5 -16 6 -4 10 -3 9 2 -3 20 2 27 11 13 8 -12 10 -12 10 -1 0
11 3 11 15 1 8 -7 15 -19 15 -26 0 -20 -48 -94 -61 -94 -6 0 -9 -9 -6 -20 5
-20 -15 -45 -26 -33 -6 6 -11 -20 -8 -40 1 -5 -2 -6 -7 -3 -5 3 -14 -6 -20
-19 -7 -14 -16 -25 -22 -25 -6 0 -8 -4 -5 -10 8 -14 -7 -35 -25 -35 -8 0 -14
-6 -12 -13 1 -6 -2 -12 -8 -12 -5 0 -7 -6 -4 -13 3 -8 -3 -20 -12 -28 -15 -12
-17 -12 -9 0 5 10 4 12 -3 7 -7 -4 -12 -18 -12 -32 0 -14 -4 -23 -8 -20 -4 2
-14 1 -22 -5 -10 -6 -11 -9 -2 -9 6 0 12 -4 12 -10 0 -5 -8 -6 -17 -3 -12 5
-15 2 -10 -10 4 -11 2 -14 -8 -11 -10 4 -12 0 -8 -15 3 -12 1 -21 -5 -21 -5 0
-15 -14 -22 -30 -7 -17 -17 -33 -23 -37 -6 -4 -7 -1 -2 7 5 9 4 11 -4 6 -6 -4
-10 -15 -9 -24 2 -9 -7 -18 -22 -23 l-25 -7 25 -2 c15 -1 19 -4 11 -7 -8 -3
-25 -17 -37 -30 -13 -14 -28 -22 -34 -18 -6 4 -18 -1 -26 -11 -11 -14 -14 -15
-11 -4 3 10 -2 16 -14 16 -13 0 -15 -3 -7 -13 8 -9 7 -13 -2 -13 -7 0 -19 8
-26 18 -10 12 -13 13 -9 2 5 -15 -50 -58 -67 -52 -5 1 -8 -4 -8 -12 0 -7 -11
-21 -25 -30 -14 -9 -23 -21 -20 -27 4 -5 0 -23 -9 -39 -8 -17 -11 -28 -7 -26
4 3 7 -17 6 -44 -1 -27 2 -55 7 -62 4 -7 8 -8 9 -3 0 6 4 -1 8 -15 4 -14 13
-24 19 -23 7 2 11 0 11 -5 -3 -20 4 -29 36 -46 19 -11 35 -22 35 -27 0 -4 7
-10 16 -13 10 -4 13 -2 8 7 -4 6 3 3 16 -8 21 -18 23 -18 17 -2 -5 13 -3 16 6
10 6 -4 21 -9 32 -11 27 -5 49 -10 53 -12 8 -6 53 -1 89 9 23 6 45 10 50 9 5
-2 19 7 32 19 18 16 33 21 65 18 22 -2 35 -1 29 2 -7 3 -13 11 -13 19 0 10 6
11 24 4 19 -7 23 -5 22 8 0 9 4 16 11 15 7 -2 10 3 8 10 -7 17 40 38 54 24 8
-8 11 -6 11 6 0 18 29 37 48 30 6 -3 12 3 12 12 0 9 5 13 10 10 6 -4 8 -11 4
-16 -3 -6 3 -5 15 3 12 7 21 15 21 18 0 3 9 6 20 7 13 1 18 -2 13 -10 -5 -8
-2 -8 9 1 20 16 89 8 100 -12 5 -9 16 -16 23 -16 24 0 17 -18 -7 -23 -17 -3
-14 -5 10 -6 34 -1 40 -9 21 -28 -9 -9 -6 -10 12 -6 13 3 21 2 17 -2 -4 -4 -2
-17 4 -28 9 -17 8 -19 -8 -13 -15 6 -17 5 -6 -5 16 -17 15 -29 -3 -29 -8 0
-15 -4 -15 -10 0 -5 5 -10 10 -10 6 0 10 -5 10 -11 0 -5 -4 -8 -9 -5 -4 3 -17
-2 -27 -10 -10 -9 -13 -12 -5 -8 10 5 12 3 7 -5 -6 -9 -11 -9 -21 -1 -10 8
-15 8 -21 -1 -5 -8 -3 -9 6 -4 8 5 11 4 6 -3 -3 -6 -14 -10 -24 -10 -9 1 -28
-2 -41 -6 -15 -5 -21 -5 -17 2 3 6 -1 9 -11 7 -10 -2 -25 -4 -32 -4 -11 -1
-12 -4 -4 -12 6 -6 37 -13 69 -15 48 -4 65 -1 92 15 122 77 81 257 -68 296
-89 24 -147 5 -334 -105 -90 -53 -175 -90 -206 -90 -11 0 -20 -4 -20 -8 0 -17
-145 18 -189 46 -56 34 -91 97 -91 164 0 41 5 54 38 89 44 50 85 69 149 69
l48 0 195 284 c207 302 256 383 262 431 l3 30 -90 2 c-138 3 -277 -32 -356
-88 -16 -11 -29 -19 -30 -17 0 2 -1 29 -2 61 l-2 57 340 0 339 0 -31 -27 c-26
-23 -444 -622 -514 -737 -17 -29 -17 -29 6 -48 13 -10 27 -34 31 -53 l6 -35
63 0 c97 0 210 26 287 65 38 19 71 35 74 35 2 0 4 -22 4 -50 0 -38 4 -50 15
-50 25 0 98 -40 118 -64 51 -62 62 -160 24 -217 -47 -69 -113 -93 -195 -70
-17 5 -32 7 -32 5 0 -13 27 -31 43 -28 11 1 17 -2 14 -10 -6 -14 30 -19 38 -5
3 5 -2 6 -12 3 -14 -5 -15 -4 -4 4 9 7 23 7 39 1 29 -11 58 -4 66 16 3 8 15
15 26 15 12 0 18 5 15 10 -3 6 -1 10 5 10 6 0 16 12 23 28 6 15 15 30 20 33 4
3 10 23 12 45 3 21 6 48 8 59 2 11 -3 27 -10 36 -8 9 -13 23 -11 30 2 8 -3 13
-9 12 -12 -3 -17 9 -14 30 0 4 -5 7 -13 7 -8 0 -18 5 -22 12 -5 8 -2 9 10 5
11 -4 15 -3 11 4 -4 6 -13 8 -20 6 -13 -5 -46 27 -39 37 2 3 -2 2 -8 -4 -15
-13 -31 -13 -23 0 3 6 -4 10 -16 10 -16 0 -20 5 -16 20 3 11 1 17 -4 14 -6 -3
-7 4 -4 18 5 18 0 27 -26 42 -17 10 -34 15 -38 10 -3 -5 -15 -10 -26 -12 -20
-4 -20 -4 0 12 19 16 19 16 -7 5 -18 -8 -24 -17 -21 -27 4 -10 2 -13 -5 -8 -6
3 -14 1 -18 -6 -5 -8 -10 -6 -15 8 -7 17 -8 16 -8 -5 -1 -23 -2 -23 -20 -7
-19 17 -19 17 -14 -2 3 -15 -1 -21 -21 -24 -15 -3 -23 -1 -19 4 3 6 -4 5 -14
-1 -11 -6 -23 -7 -27 -4 -3 3 -6 1 -6 -6 0 -7 -5 -9 -11 -5 -6 3 -15 0 -20 -7
-7 -11 -9 -10 -9 4 0 9 -5 17 -11 17 -5 0 -8 -4 -5 -8 2 -4 -4 -13 -15 -20
-10 -7 -19 -8 -19 -4 0 5 -12 9 -26 8 -17 -1 -31 6 -38 19 -6 11 -19 32 -29
47 -17 26 -17 27 3 23 11 -2 18 0 15 5 -9 15 7 41 23 35 12 -4 13 -3 3 9 -10
12 -5 22 31 57 24 23 35 39 26 36 -12 -4 -15 -2 -12 8 3 8 13 11 22 8 11 -5
14 -2 9 10 -4 11 -1 17 8 17 9 0 12 6 8 17 -4 9 -2 14 3 10 5 -3 16 8 23 23 7
16 16 29 19 29 19 -3 22 3 11 22 -6 13 -7 19 -1 15 6 -3 17 0 25 8 8 8 17 13
19 11 3 -3 5 2 5 10 0 8 -5 12 -10 8 -5 -3 -4 4 2 16 7 11 17 21 23 21 6 0 8
3 5 7 -4 3 0 15 10 25 17 19 39 25 28 8 -3 -5 -1 -10 5 -10 6 0 8 10 4 25 -3
14 -2 25 4 25 9 0 25 37 23 53 -1 5 3 6 9 2 5 -3 10 -1 10 4 0 6 7 11 15 11 8
0 15 5 15 11 0 5 -6 7 -12 3 -7 -4 -5 2 5 13 9 11 17 23 17 27 0 4 11 19 25
34 14 15 23 33 20 40 -3 7 -1 11 4 8 4 -3 18 8 30 25 12 16 26 27 31 24 5 -3
11 -1 15 5 3 5 2 10 -4 10 -6 0 -8 7 -5 15 4 8 13 15 20 15 12 0 11 4 -3 18
-30 30 -102 56 -115 42 -7 -7 -96 -5 -92 2 3 4 0 8 -5 8 -6 0 -11 -4 -11 -10
0 -5 -14 -7 -32 -5 -19 2 -36 -1 -40 -8 -6 -9 -8 -9 -8 1 0 7 -4 11 -8 8 -4
-3 -25 -1 -45 4 -35 7 -62 -2 -35 -13 8 -3 5 -6 -6 -6 -14 -1 -17 4 -13 22 6
21 5 21 -8 4 -11 -15 -17 -16 -34 -7 -18 9 -21 8 -21 -7 0 -15 -2 -15 -15 3
-8 10 -15 15 -15 11 0 -4 -9 -3 -20 3 -16 8 -22 8 -26 -3z"/>
<path d="M1160 1288 c-109 -31 -152 -134 -94 -224 47 -72 134 -112 216 -100
50 8 137 47 216 97 36 23 93 54 126 70 l61 28 -147 -2 c-144 -1 -148 -2 -148
-23 0 -31 -55 -80 -104 -93 -81 -20 -150 18 -150 84 0 23 -5 35 -14 35 -7 0
11 28 42 62 73 81 73 88 -4 66z m320 -170 c0 -6 9 -8 20 -5 29 7 25 2 -15 -23
-19 -12 -39 -19 -44 -15 -6 3 -15 -4 -21 -16 -8 -14 -18 -19 -31 -16 -10 3
-17 2 -14 -3 7 -11 -15 -27 -48 -35 -18 -5 -27 -3 -27 5 0 6 4 9 9 5 5 -3 12
-1 16 4 3 6 11 8 18 5 7 -2 17 6 22 18 6 13 17 23 25 23 20 0 32 18 17 27 -6
4 0 9 16 13 15 4 25 10 23 14 -3 4 4 8 15 8 10 1 19 -3 19 -9z"/>
<path d="M1311 1225 c-15 -56 -16 -55 29 -55 49 0 52 16 11 62 l-29 32 -11
-39z"/>
<path d="M1220 1147 c-53 -27 -28 -87 36 -87 47 0 90 24 109 60 8 16 15 31 15
35 0 11 -136 4 -160 -8z"/>
<path d="M1094 691 c7 -10 3 -12 -14 -6 -16 5 -21 4 -18 -6 3 -9 24 -15 56
-17 l52 -3 -24 -37 c-47 -76 -49 -82 -25 -82 12 0 23 8 26 20 6 24 23 16 23
-11 0 -16 -7 -19 -50 -19 -27 0 -50 2 -50 5 0 3 14 27 30 53 35 58 36 62 10
62 -11 0 -20 -6 -20 -14 0 -8 -10 -18 -21 -21 -17 -6 -19 -9 -8 -16 9 -5 9 -9
2 -9 -6 0 -10 -13 -9 -29 2 -22 -2 -28 -14 -23 -8 3 -4 -4 10 -15 38 -30 93
-29 126 2 23 22 26 28 14 35 -8 6 -11 10 -7 10 4 0 4 8 -2 17 -7 13 -5 23 7
37 9 11 11 16 5 12 -7 -4 -13 -3 -13 3 0 5 6 11 13 14 7 2 0 10 -15 17 -16 7
-28 18 -28 23 0 5 -7 4 -15 -3 -12 -10 -18 -10 -32 1 -14 12 -15 12 -9 0z"/>
<path d="M1862 673 c-33 -32 -48 -63 -29 -63 7 0 6 -4 -3 -10 -15 -9 -16 -13
-19 -46 0 -8 -5 -13 -10 -10 -4 3 -6 -6 -3 -19 2 -14 9 -25 14 -25 5 0 6 5 3
10 -3 6 1 10 10 10 9 0 13 -5 10 -10 -10 -16 18 -7 31 9 10 12 13 11 18 -7 8
-25 21 -25 53 2 24 21 30 50 12 62 -8 4 -7 9 2 15 11 7 10 9 -4 9 -14 0 -17 5
-12 20 4 13 2 20 -6 20 -7 0 -9 3 -6 7 4 3 -3 13 -14 21 -17 12 -18 16 -8 23
10 6 10 9 2 9 -6 0 -25 -12 -41 -27z m33 -40 c3 -15 15 -44 25 -65 l18 -38
-22 0 c-17 0 -22 6 -22 23 1 16 -5 22 -19 22 -14 0 -20 -6 -19 -22 0 -16 -5
-23 -18 -23 -17 0 -17 2 -2 38 9 20 20 49 26 65 13 34 24 35 33 0z"/>
<path d="M1343 670 c-3 -10 -14 -22 -25 -26 -15 -4 -17 -9 -9 -17 6 -6 11 -18
11 -26 0 -8 -3 -11 -7 -7 -4 3 -12 -4 -19 -16 -10 -19 -9 -29 7 -60 20 -38 34
-52 22 -21 -5 11 -3 14 6 8 8 -4 17 -2 22 6 6 9 12 10 17 4 9 -13 42 -16 42
-4 0 5 7 6 16 2 14 -5 15 -1 10 28 -5 24 -4 30 3 19 5 -8 14 -11 18 -6 4 4 0
14 -10 21 -10 7 -19 22 -22 33 -6 32 -24 61 -45 72 -26 14 -31 13 -37 -10z
m53 -78 c23 -61 23 -62 3 -62 -11 0 -18 4 -15 9 10 16 -5 41 -24 41 -22 0 -35
-30 -18 -42 9 -5 4 -8 -14 -8 l-26 0 24 50 c13 27 24 57 24 66 0 33 23 6 46
-54z"/>
<path d="M1570 678 c0 -5 -4 -6 -10 -3 -5 3 -10 0 -10 -9 0 -8 -6 -17 -12 -19
-10 -4 -10 -6 0 -6 6 -1 12 -10 12 -22 0 -11 -4 -17 -10 -14 -6 3 -7 -1 -4 -9
3 -9 11 -16 18 -16 7 0 6 -3 -2 -9 -10 -6 -10 -10 3 -21 8 -7 15 -9 16 -4 0 5
2 29 4 54 3 28 0 47 -8 52 -7 5 -3 8 13 8 19 0 31 -10 48 -41 28 -48 34 -47
23 4 -8 31 -6 37 8 37 13 0 15 -10 13 -65 -2 -36 -7 -65 -10 -65 -4 0 -21 24
-39 53 l-32 52 0 -45 c0 -40 3 -47 35 -67 19 -13 32 -18 28 -11 -5 7 0 9 14 6
12 -4 20 -2 16 3 -3 5 0 9 6 9 6 0 8 5 5 10 -4 6 -1 18 6 26 9 11 8 18 -6 34
-16 18 -14 24 7 22 3 -1 9 5 12 14 3 8 2 12 -4 9 -6 -3 -10 -1 -10 5 0 23 -26
35 -77 36 -29 1 -53 -3 -53 -8z"/>
<path d="M1560 521 c0 -11 30 -19 48 -14 6 3 10 9 6 14 -7 12 -54 12 -54 0z"/>
</g>
</svg>
